# xmcd
#
# Track frame offsets: 
#        150
#        19457
#        44431
#        71224
#        90578
#        112473
#        129241
#        149686
#        173866
#        201450
#        216764
#        227094
#        250561
#
# Disc length: 3783 seconds
#
# Revision: 1
# Processed by: cddbd v1.5.2PL0 Copyright (c) Steve Scherf et al.
# Submitted via: ExactAudioCopy v0.99pb5
#
DISCID=cb0ec50d
DTITLE=Bill Easley - Hearing Voices
DYEAR=2009
DGENRE=18th and Vine
TTITLE0=Hearing Voices
TTITLE1=Coleman
TTITLE2=Don't Get Around Much Any More
TTITLE3=Robin's Nest
TTITLE4=For All We Know
TTITLE5=Scrapple From The Apple
TTITLE6=Confirmation
TTITLE7=Lester Leaps In
TTITLE8=Unit 7 (Cannon's Theme)
TTITLE9=Eternal Triangle
TTITLE10=Sophisticated Prelude
TTITLE11=Sophisticated Ladies
TTITLE12=Make Someone Happy
EXTD=YEAR: 2009
EXTT0=
EXTT1=
EXTT2=
EXTT3=
EXTT4=
EXTT5=
EXTT6=
EXTT7=
EXTT8=
EXTT9=
EXTT10=
EXTT11=
EXTT12=
PLAYORDER=
